/* XPM */
static char * hide_inactive_xpm[] = {
"27 28 3 1",
" 	c None",
".	c #CCCCCC",
"+	c #848484",
"...........................",
"...........................",
"...........................",
"...........................",
"...........................",
"...........................",
"...........................",
"...........................",
"...........................",
"...........................",
"...........................",
"...........................",
"...........................",
"...........................",
"......+++++++++++++++......",
"......+++++++++++++++......",
"......+++++++++++++++......",
"...........................",
"...........................",
"...........................",
"...........................",
"...........................",
"...........................",
"...........................",
"...........................",
"...........................",
"...........................",
"..........................."};
