/* XPM */
static char * bottom_inactive_xpm[] = {
"128 18 3 1",
" 	c None",
".	c #000000",
"+	c #4F4F4F",
"................................................................................................................................",
"................................................................................................................................",
"................................................................................................................................",
"................................................................................................................................",
"................................................................................................................................",
"................................................................................................................................",
"................................................................................................................................",
"................................................................................................................................",
"................................................................................................................................",
"................................................................................................................................",
"++++++++++++++++++++++++++++++++++++++++++++++++++++++++++++++++++++++++++++++++++++++++++++++++++++++++++++++++++++++++++++++++",
"++++++++++++++++++++++++++++++++++++++++++++++++++++++++++++++++++++++++++++++++++++++++++++++++++++++++++++++++++++++++++++++++",
"                                                                                                                                ",
"                                                                                                                                ",
"                                                                                                                                ",
"                                                                                                                                ",
"                                                                                                                                ",
"                                                                                                                                "};
