/* XPM */
static char * close_active_xpm[] = {
"12 21 3 1",
" 	c None",
".	c #000000",
"+	c #4F4F4F",
"            ",
"            ",
"            ",
"            ",
"            ",
"            ",
"   ......   ",
"  ........  ",
" .......... ",
"...++..++...",
"...++++++...",
"....+..+....",
"....+..+....",
"...++++++...",
"...++..++...",
" .......... ",
"  ........  ",
"   ......   ",
"            ",
"            ",
"            "};
