/* XPM */
static char * bottom_inactive_xpm[] = {
"128 18 6 1",
" 	c None",
".	c #081418",
"+	c #071418",
"@	c #081417",
"#	c #081318",
"$	c #4F4F4F",
"............................+@...............+..................................................................................",
"..................................................................................@.............................................",
"..............#......................................................................................+..........................",
"...........@.................................+..................................................................................",
".............#......................................................#...........................................................",
"................................................................................................................................",
".................................................#..............................................................................",
"......#....................................................................................@....................................",
"................................................................................................................................",
"........................................................................................................@.......................",
"$$$$$$$$$$$$$$$$$$$$$$$$$$$$$$$$$$$$$$$$$$$$$$$$$$$$$$$$$$$$$$$$$$$$$$$$$$$$$$$$$$$$$$$$$$$$$$$$$$$$$$$$$$$$$$$$$$$$$$$$$$$$$$$$",
"$$$$$$$$$$$$$$$$$$$$$$$$$$$$$$$$$$$$$$$$$$$$$$$$$$$$$$$$$$$$$$$$$$$$$$$$$$$$$$$$$$$$$$$$$$$$$$$$$$$$$$$$$$$$$$$$$$$$$$$$$$$$$$$$",
"                                                                                                                                ",
"                                                                                                                                ",
"                                                                                                                                ",
"                                                                                                                                ",
"                                                                                                                                ",
"                                                                                                                                "};
