/* XPM */
static char * bottom_right_active_xpm[] = {
"36 35 5 1",
" 	c None",
".	c #081418",
"+	c #00FFFF",
"@	c #081318",
"#	c #081417",
"                                ..++",
"                                ..++",
"                                ..++",
"                                ..++",
"                                ..++",
"                                ..++",
"                                ..++",
"                                ..++",
"                                ..++",
"                                ..++",
"                                ..++",
"                                ..++",
"                                ..++",
"                                ..++",
"                                ..++",
"                                ..++",
"                                ..++",
"..................................++",
"..................@...............++",
"................@@................++",
"....++............................++",
".....++...........................++",
"......++..........................++",
".......++.........................++",
"........++........................++",
".........++.......................++",
"........++++......................++",
"++++++++++ ++.....................++",
"+++++++++   ++....................++",
"             ++......#............++",
"              ++..................++",
"               ++.................++",
"                ++...............+++",
"                 ++++++++++++++++++ ",
"                  ++++++++++++++++  "};
