/* XPM */
static char * bottom_left_inactive_xpm[] = {
"36 35 6 1",
" 	c None",
".	c #4F4F4F",
"+	c #081418",
"@	c #081417",
"#	c #071418",
"$	c #081318",
"..++                                ",
"..++                                ",
"..++                                ",
"..++                                ",
"..++                                ",
"..++                                ",
"..++                                ",
"..++                                ",
"..++                                ",
"..++                                ",
"..++                                ",
"..++                                ",
"..++                                ",
"..++                                ",
"..++                                ",
"..++                                ",
"..++                                ",
"..++++++++++++++++++++++++++++++++++",
"..+++++++++++++++@+++++++@++++++++++",
"..++++++++++++++++++++++++++++++++++",
"..++++++++++++++++++++++++++++..++++",
"..+++++++++++++++++++++++++++..+++++",
"..++++++++++++++++++++++++++..++++++",
"..+++++++++++++++++++++++++..+++++++",
"..++++++++++++++++++++++++..#+++++++",
"..+++++++++++++++++++++++..++++#++++",
"..++++++++++++++++++++++....++++++++",
"..+++$+++++++++++++++++.. ..........",
"..++++++++++++++++++++..   .........",
"..++++++++++++++++++#..             ",
"..++++++++++++++++++..              ",
"..++++@++++++++++++..               ",
"...+++++++++++++++..                ",
" ..................                 ",
"  ................                  "};
