/* XPM */
static char * bottom_active_xpm[] = {
"128 18 5 1",
" 	c None",
".	c #081418",
"+	c #081318",
"@	c #071418",
"#	c #00FFFF",
"..........+.....................................................................................................................",
"............................................................................................................+...................",
"..............@.................................................................................................................",
".......................................................................................................+........................",
".....................................................................................................+............@.............",
"................................................................................................................................",
"...........................................................................................................+....................",
"....................................................................................................................@...........",
"..................................................................+.............................................................",
"................+...............................................................................................................",
"################################################################################################################################",
"################################################################################################################################",
"                                                                                                                                ",
"                                                                                                                                ",
"                                                                                                                                ",
"                                                                                                                                ",
"                                                                                                                                ",
"                                                                                                                                "};
