/* XPM */
static char * bottom_right_inactive_xpm[] = {
"36 35 5 1",
" 	c None",
".	c #081418",
"+	c #4F4F4F",
"@	c #081417",
"#	c #081318",
"                                ..++",
"                                ..++",
"                                ..++",
"                                ..++",
"                                ..++",
"                                ..++",
"                                ..++",
"                                ..++",
"                                ..++",
"                                ..++",
"                                ..++",
"                                ..++",
"                                ..++",
"                                ..++",
"                                ..++",
"                                ..++",
"                                ..++",
"..................................++",
"......................@...........++",
"..................................++",
"....++............................++",
".....++...........................++",
"......++..........................++",
".......++.........................++",
"........++........................++",
".........++.......................++",
"........++++......................++",
"++++++++++ ++..#..................++",
"+++++++++   ++....#...............++",
"             ++.........#.........++",
"              ++..................++",
"               ++.................++",
"                ++...............+++",
"                 ++++++++++++++++++ ",
"                  ++++++++++++++++  "};
