/* XPM */
static char * maximize_inactive_xpm[] = {
"12 21 3 1",
" 	c None",
".	c #081418",
"+	c #081417",
"            ",
"            ",
"            ",
"            ",
"            ",
"            ",
"   ......   ",
"  ........  ",
" .......... ",
"............",
"............",
"............",
"............",
"............",
"..........+.",
" .......... ",
"  ........  ",
"   ......   ",
"            ",
"            ",
"            "};
