/* XPM */
static char * maximize_active_xpm[] = {
"12 21 5 1",
" 	c None",
".	c #081418",
"+	c #4F4F4F",
"@	c #071418",
"#	c #081417",
"            ",
"            ",
"            ",
"            ",
"            ",
"            ",
"   ......   ",
"  ........  ",
" .......... ",
"...++++++...",
"...++++++...",
"...+....+...",
"...+...@+...",
"...+....+...",
"...++++++...",
" .......... ",
"  ........  ",
"   ....#.   ",
"            ",
"            ",
"            "};
