/* XPM */
static char * menu_inactive_xpm[] = {
"12 21 5 1",
" 	c None",
".	c #081418",
"+	c #071418",
"@	c #081318",
"#	c #081417",
"            ",
"            ",
"            ",
"            ",
"            ",
"            ",
"   ..+...   ",
"  ........  ",
" .......... ",
"..@.........",
"............",
"............",
"............",
"#...........",
"............",
" .......... ",
"  ........  ",
"   ......   ",
"            ",
"            ",
"            "};
