/* XPM */
static char * right_inactive_xpm[] = {
"4 64 4 1",
" 	c None",
".	c #081418",
"+	c #4F4F4F",
"@	c #081318",
"..++",
"..++",
"..++",
"..++",
"..++",
"..++",
"..++",
"..++",
"..++",
"..++",
"..++",
"..++",
"..++",
"@.++",
"..++",
"..++",
"..++",
"..++",
"..++",
"..++",
"..++",
"..++",
"..++",
"@.++",
"..++",
"..++",
"..++",
"..++",
"..++",
"..++",
"..++",
"..++",
"..++",
"..++",
"..++",
"..++",
"..++",
"..++",
"..++",
"..++",
"..++",
"..++",
"..++",
"..++",
"..++",
"..++",
"..++",
"..++",
"..++",
"..++",
"..++",
"..++",
"..++",
"..++",
"..++",
"@.++",
"..++",
"..++",
"..++",
"..++",
"..++",
"..++",
"..++",
"..++"};
