/* XPM */
static char * shade_pressed_xpm[] = {
"12 21 4 1",
" 	c None",
".	c #081418",
"+	c #071418",
"@	c #00FFFF",
"            ",
"            ",
"            ",
"            ",
"            ",
"            ",
"   ......   ",
"  ........  ",
" ........+. ",
".........+..",
".....@@.....",
"....@@@@....",
"...@@@@@@...",
"...@@@@@@...",
"............",
" .......... ",
"  ........  ",
"   ......   ",
"            ",
"            ",
"            "};
