/* XPM */
static char * shade_active_xpm[] = {
"12 21 6 1",
" 	c None",
".	c #081418",
"+	c #071418",
"@	c #4F4F4F",
"#	c #081417",
"$	c #081318",
"            ",
"            ",
"            ",
"            ",
"            ",
"            ",
"   ......   ",
"  ........  ",
" .+........ ",
"............",
".....@@.....",
"....@@@@....",
"...@@@@@@...",
"...@@@@@@...",
".....+....#.",
" ......$... ",
"  ........  ",
"   ......   ",
"            ",
"            ",
"            "};
