/* XPM */
static char * stick_active_xpm[] = {
"12 21 4 1",
" 	c None",
".	c #081418",
"+	c #4F4F4F",
"@	c #081417",
"            ",
"            ",
"            ",
"            ",
"            ",
"            ",
"   ......   ",
"  ........  ",
" .......... ",
".....+..+...",
".....++++...",
"...+++..+...",
"...+++..+...",
".....++++...",
".....+..+@..",
" .......... ",
"  ........  ",
"   ......   ",
"            ",
"            ",
"            "};
