/* XPM */
static char * stick_inactive_xpm[] = {
"12 21 4 1",
" 	c None",
".	c #081418",
"+	c #081318",
"@	c #071418",
"            ",
"            ",
"            ",
"            ",
"            ",
"            ",
"   ......   ",
"  ........  ",
" .......... ",
"............",
".....+......",
"............",
"............",
"............",
"............",
" ....@..... ",
"  ........  ",
"   ......   ",
"            ",
"            ",
"            "};
