/* XPM */
static char * stick_pressed_xpm[] = {
"12 21 5 1",
" 	c None",
".	c #081418",
"+	c #071418",
"@	c #00FFFF",
"#	c #081417",
"            ",
"            ",
"            ",
"            ",
"            ",
"            ",
"   ......   ",
"  ....+...  ",
" .......... ",
".....@..@...",
".....@@@@...",
"...@@@..@...",
"...@@@#.@...",
".....@@@@...",
".....@..@...",
" .......... ",
"  ........  ",
"   ......   ",
"            ",
"            ",
"            "};
