/* XPM */
static char * title_1_inactive_xpm[] = {
"4 21 5 1",
" 	c None",
".	c #4F4F4F",
"+	c #081418",
"@	c #081417",
"#	c #081318",
"    ",
"    ",
"    ",
"....",
"....",
"++++",
"++++",
"+@++",
"++++",
"++++",
"++++",
"++++",
"++++",
"++++",
"++#+",
"++++",
"++++",
"++++",
"++++",
"++++",
"++++"};
