/* XPM */
static char * title_4_active_xpm[] = {
"8 21 5 1",
" 	c None",
".	c #00FFFF",
"+	c #081418",
"@	c #071418",
"#	c #081318",
"        ",
"..      ",
"...     ",
"+.......",
"++......",
"+++@++++",
"++++++++",
"++++++++",
"+++++#++",
"++++++++",
"++++++++",
"++++++++",
"++++++++",
"++++++++",
"++++++++",
"++++++#+",
"++++++++",
"++++++++",
"++++++++",
"++@+++++",
"++++++++"};
