/* XPM */
static char * title_3_inactive_xpm[] = {
"128 21 6 1",
" 	c None",
".	c #4F4F4F",
"+	c #081418",
"@	c #081318",
"#	c #081417",
"$	c #071418",
"                                                                                                                                ",
"................................................................................................................................",
"................................................................................................................................",
"++++++++++++++++++++++++++++++++++++++++++++++++++++++++++++++++++++++@++++++++++++++++++++++++++++++++@+#++++++++++++++++++++++",
"++++++++++++++++++++++++++++++++++++++++++++++++++++++++++++++++++++++++++++++++++++++++++++++++++++++++++++++++++++++++++++++++",
"++++++++++++#+++++++++++++++++++++++++++++++++++++++++++++++++++++++++++++++++++++++++++++++++++++++++++++++++++++++++++++++++++",
"+++++++++++++++++++++++++++@++++++++++++++++++++++++++++++++++++++++++++++++++++++++++++++++++++++++@++++++++++++++++++++++$++++",
"++++++++++++++++++++++++++++++++++++++++++++++#+++++++++++++++++++++++++++++++++++++++++++++++++++++++++++++++++++++++++++++++++",
"+++++++++++++++++++++++++++++++++++++++++$++++++++++++++++++++++++++++++++++++++++++++++++++++++++++++++++++++++++++++++++$+++++",
"++++++++++++++++++++++++++++++++++++++++++++++++++++++++++++++++++++++++++++++++++++++++++++++++++++++++++++++++++++++++++++++++",
"+++++++++++++++++++++++++++++++++++++++++++++++++++++++++++++++++++++++++++++++++++++++++++++++++++++++++$$+++++++++++++++++++++",
"++++++++@+++++++++++++++++++++++++++++++++++++++++++++++++++++++++++++++$++++++++$++++++++++++++++++++++++++++++++++++++++++++++",
"++++++++++++++++++++++++++++++++++++++++++$+++++++++++++++++++++++++++++++++++++++++++++++++++++++++++++#+++++++++++++++++++++++",
"++++++++++++++++++++++++++++++++++++++++++++++++++#+++++++++++++++++++++++++++++++++++++++++++++++++++++++++++++++++++++++++++++",
"+++++++++++++++#+++++++++++#++++++++++++++++++++++++++++++++++++++++++++++++++++++++++++++++++++++++++++++++++++++++++++++++++++",
"++++++++++++++++++++++++++++++++++++++++++++++++++++++++++$+++#++++++$++++++++++++++++++++++++++++++++++++++++++++++++++++++++++",
"++++++++++++++++++++++++++++++++++++++++++++++++++++++++@+++++++++++$+++++++++++++++++++++++++++++++++++++++++++++++++++++++++++",
"++++++++++++++++++++++++++++++++++++++++++++++++++++++++++++++++++++++++++++++++++++++++++++++++++++++++++++++++++++++++++++++++",
"++++++++++++++++++++++++++++++++++++++++++++++++++++++++++++++@+++++++++++++++++++++++++++++++++++++++++++++++++++++++++++++++++",
"++++++++++++++++++++++++++++++++++++++++++++++++++++++++++++++++++++++++++++++++++++++++++++++++++++++++++++++++++++++++++++++++",
"@+++++++++++++++++++++++++++++++++++++++++++++++++++++++++++++++#+++++++++++++++++++++++++++++++++++++++++++++++++++++++++++++++"};
