/* XPM */
static char * top_left_active_xpm[] = {
"21 21 6 1",
" 	c None",
".	c #00FFFF",
"+	c #081418",
"@	c #081318",
"#	c #071418",
"$	c #081417",
"   ..............    ",
"  ................   ",
" ...++++++++++++...  ",
"...++++++++++++++....",
"..++++++++++++++++...",
"..++@++++++++++++++++",
"..+++++++++++++++++++",
"..+++++++++++++++++++",
"..+#+++++++++++++++++",
"..+++++++++++++++++++",
"..+++++++++++++++++++",
"..++++++++$++++++++++",
"..+++++++++++++++++++",
"..+++++++++++++++++++",
"..+++++++++++++++++++",
"..+++++++++++++++++++",
"..+++++++++++++++++++",
"..+++++++++++++++++++",
"..+++++++++++++++++++",
"..++++@++++++++++++++",
"..+++++#+++++++++++++"};
