/* XPM */
static char * top_right_inactive_xpm[] = {
"21 21 5 1",
" 	c None",
".	c #4F4F4F",
"+	c #081418",
"@	c #081318",
"#	c #081417",
"    ..............   ",
"   ................  ",
"  ...++++++++++++... ",
"....++++++++++++++...",
"...++++++++++++++++..",
"+++++++++++++++++++..",
"+++++++++++++++++++..",
"+++++++++++++++++++..",
"+++++++++++++++++++..",
"+++++++++++++++++++..",
"+++++++++++++++++++..",
"+++++++++++++++++++..",
"+++++++@+++++++++++..",
"+++++++++++++++++++..",
"+++++++++++++++++++..",
"+++++++++++++++++++..",
"+++++++++++++++++++..",
"++#++++++++++++++++..",
"+++#+++++++++++++++..",
"+++++++++++++++++++..",
"+++++++++++++++++++.."};
