/* XPM */
static char * top_right_active_xpm[] = {
"21 21 4 1",
" 	c None",
".	c #00FFFF",
"+	c #081418",
"@	c #081318",
"    ..............   ",
"   ................  ",
"  ...++++++++++++... ",
"....++++++++++++++...",
"...++++++++++++++++..",
"+++++++++@+++++++++..",
"+++++++++++++++++++..",
"+++++++++++++++++++..",
"+++++++++++++++++++..",
"+++++++++++++++++++..",
"+++++++++++++++++++..",
"+++++++++++++++++++..",
"+++++++++++++++++++..",
"+++++++++++++++++++..",
"+++++++++++++++++++..",
"+++++++++++++++++++..",
"+++++++++@+++++++++..",
"+++++++++++++++++++..",
"+++++++++++++++++++..",
"+++++++++++++++++++..",
"+++++++++++++++++++.."};
