/* XPM */
static char * top_left_inactive_xpm[] = {
"21 21 4 1",
" 	c None",
".	c #4F4F4F",
"+	c #081418",
"@	c #081417",
"   ..............    ",
"  ................   ",
" ...++++++++++++...  ",
"...++++++++++++++....",
"..++++++++++++++++...",
"..+++++++++++++++++++",
"..+++++++++++++++++++",
"..++++++@++++++++++++",
"..+++++++++++++++++++",
"..+++++++++++++++++++",
"..+++++++++++++++++++",
"..+++++++++++++++++++",
"..+++++++++++++++++++",
"..+++++++++++++++++++",
"..+++++++++++++++++++",
"..+++++++++++@+++++++",
"..+++++++++++++++++++",
"..+++++++++++++++++++",
"..+++++++++++++++++++",
"..+++++++++++++++++++",
"..+++++++++++++++++++"};
