/* XPM */
static char * hide_prelight_xpm[] = {
"27 28 3 1",
" 	c None",
".	c #CCCCCC",
"+	c #2F2F2F",
"...........................",
"...........................",
"...........................",
"...........................",
"...........................",
"...........................",
"...........................",
"...........................",
"...........................",
"...........................",
"...........................",
"...........................",
"...........................",
"...........................",
"......+++++++++++++++......",
"......+++++++++++++++......",
"......+++++++++++++++......",
"...........................",
"...........................",
"...........................",
"...........................",
"...........................",
"...........................",
"...........................",
"...........................",
"...........................",
"...........................",
"..........................."};
