/* XPM */
static char * menu_inactive_xpm[] = {
"27 28 5 1",
" 	c None",
".	c #CCCCCC",
"+	c #B8B8B8",
"@	c #777777",
"#	c #A1A1A1",
"...........................",
"...........................",
"...........................",
"...........................",
"...........................",
"...........................",
"...........................",
"...........................",
"...........+@@+............",
"...........+@@+............",
"...........+@@+............",
"...........+@@+............",
"...........+@@+............",
"...........+@@+............",
"...........+@@+............",
"...........+@@+............",
"...........+@@+............",
"........#@@@@@@@@#.........",
".........#@@@@@@#..........",
"..........#@@@@#...........",
"...........#@@#............",
"............##.............",
"...........................",
"...........................",
"...........................",
"...........................",
"...........................",
"..........................."};
