/* XPM */
static char * close_inactive_xpm[] = {
"20 20 37 1",
" 	c None",
".	c #010101",
"+	c #181818",
"@	c #525252",
"#	c #7E7E7E",
"$	c #030303",
"%	c #808080",
"&	c #AFAFAF",
"*	c #EEEEEE",
"=	c #080808",
"-	c #595959",
";	c #ABABAB",
">	c #EFEFEF",
",	c #575757",
"'	c #090909",
")	c #868686",
"!	c #C2C2C2",
"~	c #B9B9B9",
"{	c #0A0A0A",
"]	c #999999",
"^	c #9D9D9D",
"/	c #141414",
"(	c #4E4E4E",
"_	c #828282",
":	c #858585",
"<	c #4C4C4C",
"[	c #151515",
"}	c #0C0C0C",
"|	c #5D5D5D",
"1	c #6D6D6D",
"2	c #6E6E6E",
"3	c #303030",
"4	c #1D1D1D",
"5	c #3C3C3C",
"6	c #505050",
"7	c #1E1E1E",
"8	c #131313",
"                    ",
"                    ",
"                    ",
"                    ",
"                    ",
"        ....        ",
"       +@##@+       ",
"      $%&**&%$      ",
"     =-;*>>*;,=     ",
"     ');!~~!;)'     ",
"     {#]^^^^]#{     ",
"     /(_::::_<[     ",
"      }|1221|}      ",
"      34566543      ",
"        7887        ",
"                    ",
"                    ",
"                    ",
"                    ",
"                    "};
