/* XPM */
static char * close_pressed_xpm[] = {
"20 20 38 1",
" 	c None",
".	c #010101",
"+	c #050505",
"@	c #0F0F0F",
"#	c #161616",
"$	c #030303",
"%	c #191919",
"&	c #222222",
"*	c #262626",
"=	c #080808",
"-	c #151515",
";	c #272727",
">	c #2E2E2E",
",	c #323232",
"'	c #090909",
")	c #212121",
"!	c #2D2D2D",
"~	c #333333",
"{	c #363636",
"]	c #0A0A0A",
"^	c #242424",
"/	c #343434",
"(	c #353535",
"_	c #252525",
":	c #141414",
"<	c #1C1C1C",
"[	c #2C2C2C",
"}	c #303030",
"|	c #313131",
"1	c #1B1B1B",
"2	c #0C0C0C",
"3	c #232323",
"4	c #2A2A2A",
"5	c #2B2B2B",
"6	c #121212",
"7	c #232222",
"8	c #1E1E1E",
"9	c #131313",
"                    ",
"                    ",
"                    ",
"                    ",
"                    ",
"        ....        ",
"       +@##@+       ",
"      $%&**&%$      ",
"     =-;>,,>;-=     ",
"     ')!~{{~!)'     ",
"     ]^>/((/>_]     ",
"     :<[}||}[1-     ",
"      23455432      ",
"      }6<77<6}      ",
"        8998        ",
"                    ",
"                    ",
"                    ",
"                    ",
"                    "};
