/* XPM */
static char * title_1_inactive_xpm[] = {
"10 20 6 1",
" 	c #464646",
".	c #2E2E2E",
"+	c #2D2D2D",
"@	c #2C2C2C",
"#	c #2B2B2B",
"$	c #2A2A2A",
"          ",
"..........",
"..........",
"..........",
"++++++++++",
"++++++++++",
"++++++++++",
"++++++++++",
"++++++++++",
"@@@@@@@@@@",
"@@@@@@@@@@",
"@@@@@@@@@@",
"@@@@@@@@@@",
"##########",
"##########",
"##########",
"##########",
"$$$$$$$$$$",
"$$$$$$$$$$",
"$$$$$$$$$$"};
