/* XPM */
static char * bottom_inactive_xpm[] = {
"128 18 4 1",
" 	c None",
".	c #292829",
"+	c #292729",
"@	c #4F4F4F",
"................................................................................................................................",
".......................................................................+........................................................",
"............................................................................+...................................................",
"....................................................................+...........................................................",
"................................................................................................................................",
"................................................................................................................................",
".............+...............................................+..................................................................",
"................................................................................................................................",
".............................................................................................................+..................",
"............+...................................................................................................................",
"@@@@@@@@@@@@@@@@@@@@@@@@@@@@@@@@@@@@@@@@@@@@@@@@@@@@@@@@@@@@@@@@@@@@@@@@@@@@@@@@@@@@@@@@@@@@@@@@@@@@@@@@@@@@@@@@@@@@@@@@@@@@@@@@",
"@@@@@@@@@@@@@@@@@@@@@@@@@@@@@@@@@@@@@@@@@@@@@@@@@@@@@@@@@@@@@@@@@@@@@@@@@@@@@@@@@@@@@@@@@@@@@@@@@@@@@@@@@@@@@@@@@@@@@@@@@@@@@@@@",
"                                                                                                                                ",
"                                                                                                                                ",
"                                                                                                                                ",
"                                                                                                                                ",
"                                                                                                                                ",
"                                                                                                                                "};
