/* XPM */
static char * close_pressed_xpm[] = {
"12 21 4 1",
" 	c None",
".	c #292829",
"+	c #292729",
"@	c #00FFFF",
"            ",
"            ",
"            ",
"            ",
"            ",
"            ",
"   ......   ",
"  ........  ",
" ......+... ",
"...@@..@@...",
"...@@@@@@...",
"....@..@....",
"....@..@....",
"...@@@@@@...",
"...@@..@@...",
" .......... ",
"  ........  ",
"   ......   ",
"            ",
"            ",
"            "};
