/* XPM */
static char * hide_pressed_xpm[] = {
"12 21 4 1",
" 	c None",
".	c #292829",
"+	c #00FFFF",
"@	c #292729",
"            ",
"            ",
"            ",
"            ",
"            ",
"            ",
"   ......   ",
"  ........  ",
" .......... ",
"............",
"............",
"............",
"............",
"...++++++...",
"...++++++...",
" ......@... ",
"  ........  ",
"   ......   ",
"            ",
"            ",
"            "};
