/* XPM */
static char * left_active_xpm[] = {
"4 64 4 1",
" 	c None",
".	c #00FFFF",
"+	c #292829",
"@	c #292729",
"..++",
"..++",
"..++",
"..++",
"..++",
"..++",
"..++",
"..++",
"..++",
"..++",
"..++",
"..++",
"..++",
"..++",
"..++",
"..++",
"..++",
"..++",
"..++",
"..++",
"..++",
"..++",
"..++",
"..++",
"..++",
"..++",
"..++",
"..++",
"..++",
"..++",
"..++",
"..++",
"..++",
"..++",
"..++",
"..++",
"..++",
"..++",
"..++",
"..++",
"..++",
"..++",
"..++",
"..++",
"..++",
"..++",
"..++",
"..++",
"..++",
"..+@",
"..++",
"..++",
"..++",
"..++",
"..++",
"..++",
"..++",
"..++",
"..++",
"..++",
"..++",
"..++",
"..++",
"..++"};
