/* XPM */
static char * shade_pressed_xpm[] = {
"12 21 3 1",
" 	c None",
".	c #292829",
"+	c #00FFFF",
"            ",
"            ",
"            ",
"            ",
"            ",
"            ",
"   ......   ",
"  ........  ",
" .......... ",
"............",
".....++.....",
"....++++....",
"...++++++...",
"...++++++...",
"............",
" .......... ",
"  ........  ",
"   ......   ",
"            ",
"            ",
"            "};
