/* XPM */
static char * stick_active_xpm[] = {
"12 21 4 1",
" 	c None",
".	c #292829",
"+	c #292729",
"@	c #4F4F4F",
"            ",
"            ",
"            ",
"            ",
"            ",
"            ",
"   ....+.   ",
"  ...+....  ",
" .......... ",
".....@..@...",
".....@@@@...",
"...@@@..@...",
"...@@@..@...",
".....@@@@...",
".....@..@...",
" .......... ",
"  ........  ",
"   ......   ",
"            ",
"            ",
"            "};
