/* XPM */
static char * title_2_active_xpm[] = {
"8 21 4 1",
" 	c None",
".	c #00FFFF",
"+	c #292829",
"@	c #292729",
"        ",
"      ..",
"     ...",
".......+",
"......++",
"++++++++",
"++++++++",
"++++++++",
"++++++++",
"++++++++",
"++++++++",
"++++++++",
"++++++++",
"++++++++",
"++++++@+",
"++++++++",
"++++++++",
"++++++++",
"++++++++",
"++++++++",
"++++++++"};
