/* XPM */
static char * title_1_active_xpm[] = {
"4 21 4 1",
" 	c None",
".	c #00FFFF",
"+	c #292829",
"@	c #292729",
"    ",
"    ",
"    ",
"....",
"....",
"++++",
"++++",
"++++",
"++++",
"++++",
"++++",
"++++",
"@+++",
"++++",
"++++",
"++++",
"++++",
"++++",
"++++",
"++++",
"++++"};
