/* XPM */
static char * title_5_inactive_xpm[] = {
"4 21 3 1",
" 	c None",
".	c #4F4F4F",
"+	c #292829",
"    ",
"    ",
"    ",
"....",
"....",
"++++",
"++++",
"++++",
"++++",
"++++",
"++++",
"++++",
"++++",
"++++",
"++++",
"++++",
"++++",
"++++",
"++++",
"++++",
"++++"};
