/* XPM */
static char * title_4_active_xpm[] = {
"8 21 3 1",
" 	c None",
".	c #00FFFF",
"+	c #292829",
"        ",
"..      ",
"...     ",
"+.......",
"++......",
"++++++++",
"++++++++",
"++++++++",
"++++++++",
"++++++++",
"++++++++",
"++++++++",
"++++++++",
"++++++++",
"++++++++",
"++++++++",
"++++++++",
"++++++++",
"++++++++",
"++++++++",
"++++++++"};
