/* XPM */
static char * top_left_active_xpm[] = {
"21 21 4 1",
" 	c None",
".	c #00FFFF",
"+	c #292829",
"@	c #292729",
"   ..............    ",
"  ................   ",
" ...++++++++++++...  ",
"...++++++++++++++....",
"..++++++@+++++++++...",
"..+++++++++++++++++++",
"..+++++++++++++++++++",
"..+++++++++++++++++++",
"..+++++++++++++++++++",
"..+++++++++++++++++++",
"..+++++++++++++++++++",
"..+++++++++++++++++++",
"..+++++++++++++++++++",
"..+++++++++++++++++++",
"..+++++++++++++++++++",
"..+++++++++++++++++++",
"..+++++++++++++++++++",
"..+++++++++++++++++++",
"..++++++++++@++++++++",
"..+++++++++++++++++++",
"..+++++++++++++++++++"};
