/* XPM */
static char * close_pressed_xpm[] = {
"18 20 20 1",
" 	c None",
".	c #000000",
"+	c #050505",
"@	c #020202",
"#	c #030303",
"$	c #0F0F0F",
"%	c #0D0D0D",
"&	c #181818",
"*	c #171717",
"=	c #1B1B1B",
"-	c #1A1A1A",
";	c #262626",
">	c #252525",
",	c #010101",
"'	c #1F1F1F",
")	c #393939",
"!	c #454545",
"~	c #464646",
"{	c #474747",
"]	c #414141",
"                  ",
"                  ",
"                  ",
"                  ",
"                  ",
"                  ",
"                  ",
"                  ",
"                  ",
"...............+  ",
"@#@............@$ ",
"%%.&&&&&&&&&&&&.* ",
"=-.&&&&&&&&&&&&@; ",
">;=,..........@') ",
"!~{~~~~~~~~~!~!]  ",
"                  ",
"                  ",
"                  ",
"                  ",
"                  "};
