/* XPM */
static char * close_inactive_xpm[] = {
"18 20 26 1",
" 	c None",
".	c #000000",
"+	c #050505",
"@	c #020202",
"#	c #030303",
"$	c #0F0F0F",
"%	c #0D0D0D",
"&	c #A2A2A2",
"*	c #E2E2E2",
"=	c #A1A1A1",
"-	c #171717",
";	c #1B1B1B",
">	c #1A1A1A",
",	c #888888",
"'	c #B6B6B6",
")	c #B5B5B5",
"!	c #868686",
"~	c #262626",
"{	c #252525",
"]	c #010101",
"^	c #1F1F1F",
"/	c #393939",
"(	c #454545",
"_	c #464646",
":	c #474747",
"<	c #414141",
"                  ",
"                  ",
"                  ",
"                  ",
"                  ",
"                  ",
"                  ",
"                  ",
"                  ",
"...............+  ",
"@#@............@$ ",
"%%.&**********=.- ",
";>.,'''''''')'!@~ ",
"{~;]..........@^/ ",
"(_:_________(_(<  ",
"                  ",
"                  ",
"                  ",
"                  ",
"                  "};
