/* XPM */
static char * hide_inactive_xpm[] = {
"18 20 31 1",
" 	c None",
".	c #030303",
"+	c #000000",
"@	c #010101",
"#	c #070707",
"$	c #020202",
"%	c #050505",
"&	c #0E0E0E",
"*	c #A1A1A1",
"=	c #E3E3E3",
"-	c #E2E2E2",
";	c #E1E1E1",
">	c #A2A2A2",
",	c #0D0D0D",
"'	c #202020",
")	c #878787",
"!	c #B6B6B6",
"~	c #B7B7B7",
"{	c #B5B5B5",
"]	c #B9B9B9",
"^	c #1B1B1B",
"/	c #1C1C1C",
"(	c #3A3A3A",
"_	c #1D1D1D",
":	c #181818",
"<	c #252525",
"[	c #242424",
"}	c #434343",
"|	c #474747",
"1	c #464646",
"2	c #454545",
"                  ",
"                  ",
"                  ",
"                  ",
"                  ",
"                  ",
"                  ",
"                  ",
"                  ",
" .+@+@+@++@@@@++++",
"#$@+++++++++@@$$%%",
"&+*=--;----=;>+,,,",
"'$)!!!~{!]{!!)$^//",
"(_+@++++@++@+.:<[[",
" }|11|11111212|1||",
"                  ",
"                  ",
"                  ",
"                  ",
"                  "};
