/* XPM */
static char * hide_active_xpm[] = {
"18 20 22 1",
" 	c None",
".	c #030303",
"+	c #000000",
"@	c #010101",
"#	c #070707",
"$	c #020202",
"%	c #050505",
"&	c #0E0E0E",
"*	c #FFFFFF",
"=	c #0D0D0D",
"-	c #202020",
";	c #1B1B1B",
">	c #1C1C1C",
",	c #3A3A3A",
"'	c #1D1D1D",
")	c #181818",
"!	c #252525",
"~	c #242424",
"{	c #434343",
"]	c #474747",
"^	c #464646",
"/	c #454545",
"                  ",
"                  ",
"                  ",
"                  ",
"                  ",
"                  ",
"                  ",
"                  ",
"                  ",
" .+@+@+@++@@@@++++",
"#$@+++++++++@@$$%%",
"&+************+===",
"-$************$;>>",
",'+@++++@++@+.)!~~",
" {]^^]^^^^^/^/]^]]",
"                  ",
"                  ",
"                  ",
"                  ",
"                  "};
