/* XPM */
static char * maximize_inactive_xpm[] = {
"18 20 28 1",
" 	c None",
".	c #000000",
"+	c #010101",
"@	c #040404",
"#	c #020202",
"$	c #030303",
"%	c #0C0C0C",
"&	c #A1A1A1",
"*	c #E3E3E3",
"=	c #E2E2E2",
"-	c #E1E1E1",
";	c #A0A0A0",
">	c #0D0D0D",
",	c #1E1E1E",
"'	c #878787",
")	c #B6B6B6",
"!	c #B5B5B5",
"~	c #B7B7B7",
"{	c #888888",
"]	c #1A1A1A",
"^	c #1C1C1C",
"/	c #252525",
"(	c #181818",
"_	c #262626",
":	c #454545",
"<	c #474747",
"[	c #444444",
"}	c #464646",
"                  ",
"                  ",
"                  ",
"                  ",
"                  ",
"                  ",
"                  ",
"                  ",
"                  ",
".....+...........+",
"@#...+.......++$@@",
"%#&**=*===-=*;.>%%",
",+')!)!!)))~){+]^^",
"/]#..++++.#..#(/__",
":<[<::}}}<:}<:}}::",
"                  ",
"                  ",
"                  ",
"                  ",
"                  "};
