/* XPM */
static char * maximize_active_xpm[] = {
"18 20 19 1",
" 	c None",
".	c #000000",
"+	c #010101",
"@	c #040404",
"#	c #020202",
"$	c #030303",
"%	c #0C0C0C",
"&	c #FFFFFF",
"*	c #0D0D0D",
"=	c #1E1E1E",
"-	c #1A1A1A",
";	c #1C1C1C",
">	c #252525",
",	c #181818",
"'	c #262626",
")	c #454545",
"!	c #474747",
"~	c #444444",
"{	c #464646",
"                  ",
"                  ",
"                  ",
"                  ",
"                  ",
"                  ",
"                  ",
"                  ",
"                  ",
".....+...........+",
"@#...+.......++$@@",
"%#&&&&&&&&&&&&.*%%",
"=+&&&&&&&&&&&&+-;;",
">-#..++++.#..#,>''",
")!~!)){{{!){!){{))",
"                  ",
"                  ",
"                  ",
"                  ",
"                  "};
