/* XPM */
static char * title_1_active_shaded_xpm[] = {
"10 20 3 1",
" 	c #242424",
".	c #232323",
"+	c #222222",
"          ",
"          ",
"          ",
"          ",
"          ",
"          ",
"..........",
"..........",
"..........",
"..........",
"..........",
"..........",
"..........",
"..........",
"++++++++++",
"++++++++++",
"++++++++++",
"++++++++++",
"++++++++++",
"++++++++++"};
