/* XPM */
static char * top_left_inactive_xpm[] = {
"10 20 4 1",
" 	c None",
".	c #242424",
"+	c #232323",
"@	c #222222",
" .........",
"..........",
"..........",
"..........",
"..........",
"..........",
"++++++++++",
"++++++++++",
"++++++++++",
"++++++++++",
"++++++++++",
"++++++++++",
"++++++++++",
"++++++++++",
"++++++++++",
"@@@@@@@@@@",
"@@@@@@@@@@",
"@@@@@@@@@@",
"@@@@@@@@@@",
"@@@@@@@@@@"};
