#define close_width 13
#define close_height 13
static unsigned char close_bits[] = {
   0x02, 0x08, 0x07, 0x1c, 0x0f, 0x1e, 0x1e, 0x0f, 0xbc, 0x07, 0xf8, 0x03,
   0xf0, 0x01, 0xf0, 0x01, 0xf8, 0x03, 0xbc, 0x07, 0x1e, 0x0f, 0x0f, 0x1e,
   0x06, 0x0c };
