#define menu_width 13
#define menu_height 13
static unsigned char menu_bits[] = {
   0xe0, 0x00, 0xe0, 0x00, 0xe0, 0x00, 0xe0, 0x00, 0xe0, 0x00, 0xe0, 0x00,
   0xe0, 0x00, 0xe0, 0x00, 0xe0, 0x00, 0xf8, 0x03, 0xf0, 0x01, 0xe0, 0x00,
   0x40, 0x00 };
