/* XPM */
static char * close_pressed_xpm[] = {
"27 28 12 1",
" 	c None",
".	c #CCCCCC",
"+	c #959595",
"@	c #7E7E7E",
"#	c #858585",
"$	c #8E8E8E",
"%	c #4F4F4F",
"&	c #787878",
"*	c #CACACA",
"=	c #636363",
"-	c #5E5E5E",
";	c #8C8C8C",
"...........................",
"...........................",
"...........................",
"...........................",
"...........................",
"...........................",
"...........................",
"...........................",
"...........................",
"........+@.......#$........",
".......+%%@.....#%%$.......",
".......@%%%@...#%%%&*......",
"........@%%%@.#%%%&*.......",
".........@%%%=%%%&*........",
"..........@%%%%%&*.........",
"...........=%%%-*..........",
"..........#%%%%%@..........",
".........#%%%-%%%@.........",
"........#%%%&*@%%%@........",
".......#%%%&*..@%%%@.......",
".......;%%&*....@%%#.......",
"........;&*......@#........",
"...........................",
"...........................",
"...........................",
"...........................",
"...........................",
"..........................."};
