/* XPM */
static char * hide_pressed_xpm[] = {
"27 28 3 1",
" 	c None",
".	c #CCCCCC",
"+	c #4F4F4F",
"...........................",
"...........................",
"...........................",
"...........................",
"...........................",
"...........................",
"...........................",
"...........................",
"...........................",
"...........................",
"...........................",
"...........................",
"...........................",
"...........................",
"......+++++++++++++++......",
"......+++++++++++++++......",
"......+++++++++++++++......",
"...........................",
"...........................",
"...........................",
"...........................",
"...........................",
"...........................",
"...........................",
"...........................",
"...........................",
"...........................",
"..........................."};
