/* XPM */
static char * close_prelight_xpm[] = {
"25 25 33 1",
" 	c None",
".	c #282828",
"+	c #525252",
"@	c #505050",
"#	c #4C4C4C",
"$	c #212121",
"%	c #484848",
"&	c #3B3B3B",
"*	c #3C3C3C",
"=	c #4F4F4F",
"-	c #494949",
";	c #474747",
">	c #414141",
",	c #454545",
"'	c #353535",
")	c #464646",
"!	c #A9A9A9",
"~	c #565656",
"{	c #515151",
"]	c #393939",
"^	c #575757",
"/	c #5D5D5D",
"(	c #ABABAB",
"_	c #3A3A3A",
":	c #ACACAC",
"<	c #3A3939",
"[	c #5C5C5C",
"}	c #4B4B4B",
"|	c #252525",
"1	c #474646",
"2	c #212020",
"3	c #464545",
"4	c #393838",
".++++++++++++++++@@#     ",
"$%&&&&&&&&&&&&&&&&&*+=   ",
"$%&&&&&&&&&&&&&&&&&&&&-  ",
"$%&&&&&&&&&&&&&&&&&&&&&; ",
"$%&&&&&&&&&&&&&&&&&&&&&> ",
"$%&&&&&&&&,&&&&,&&&&&&&&'",
"$%&&&&&&&)!~&&{!#&&&&&&&]",
"$%&&&&&&&&^!~{!/&&&&&&&&]",
"$%&&&&&&&&&^((/&&&&&&&&&_",
"$;_________{::~_________<",
"$;________{![~!~________<",
"$;_______;![__~!}_______<",
"$;________}____}________<",
"$;______________________<",
"$;______________________<",
"$;______________________<",
"$;______________________<",
"|;;;;;;;;;;;;;;;;;;;;;;;1",
"$$$$$$$$$$$$$$$$$$$$$$$$2",
"))))))))))))))))))))))))3",
"]]]]]]]]]]]]]]]]]]]]]]]]4",
"]]]]]]]]]]]]]]]]]]]]]]]]4",
"]]]]]]]]]]]]]]]]]]]]]]]]4",
"]]]]]]]]]]]]]]]]]]]]]]]]4",
"]]]]]]]]]]]]]]]]]]]]]]]]4"};
