/* XPM */
static char * close_active_xpm[] = {
"25 25 23 1",
" 	c None",
".	c #282828",
"+	c #525252",
"@	c #505050",
"#	c #4C4C4C",
"$	c #212121",
"%	c #484848",
"&	c #3B3B3B",
"*	c #3C3C3C",
"=	c #4F4F4F",
"-	c #494949",
";	c #474747",
">	c #414141",
",	c #353535",
"'	c #393939",
")	c #3A3A3A",
"!	c #3A3939",
"~	c #252525",
"{	c #474646",
"]	c #212020",
"^	c #464646",
"/	c #464545",
"(	c #393838",
".++++++++++++++++@@#     ",
"$%&&&&&&&&&&&&&&&&&*+=   ",
"$%&&&&&&&&&&&&&&&&&&&&-  ",
"$%&&&&&&&&&&&&&&&&&&&&&; ",
"$%&&&&&&&&&&&&&&&&&&&&&> ",
"$%&&&&&&&&&&&&&&&&&&&&&&,",
"$%&&&&&&&&&&&&&&&&&&&&&&'",
"$%&&&&&&&&&&&&&&&&&&&&&&'",
"$%&&&&&&&&&&&&&&&&&&&&&&)",
"$;))))))))))))))))))))))!",
"$;))))))))))))))))))))))!",
"$;))))))))))))))))))))))!",
"$;))))))))))))))))))))))!",
"$;))))))))))))))))))))))!",
"$;))))))))))))))))))))))!",
"$;))))))))))))))))))))))!",
"$;))))))))))))))))))))))!",
"~;;;;;;;;;;;;;;;;;;;;;;;{",
"$$$$$$$$$$$$$$$$$$$$$$$$]",
"^^^^^^^^^^^^^^^^^^^^^^^^/",
"''''''''''''''''''''''''(",
"''''''''''''''''''''''''(",
"''''''''''''''''''''''''(",
"''''''''''''''''''''''''(",
"''''''''''''''''''''''''("};
