/* XPM */
static char * maximize_pressed_xpm[] = {
"25 25 25 1",
" 	c None",
".	c #282828",
"+	c #3A3A3A",
"@	c #212121",
"#	c #343434",
"$	c #373737",
"%	c #333333",
"&	c #4B4B4B",
"*	c #575757",
"=	c #B4B4B4",
"-	c #666666",
";	c #4F4F4F",
">	c #AAAAAA",
",	c #767676",
"'	c #ACACAC",
")	c #565656",
"!	c #363636",
"~	c #4E4E4E",
"{	c #A9A9A9",
"]	c #606060",
"^	c #555555",
"/	c #444444",
"(	c #252525",
"_	c #464646",
":	c #393939",
".++++++++++++++++++++++++",
"@#$$$$$$$$$$$$$$$$$$$$$$%",
"@#$$$$$$$$$$$$$$$$$$$$$$%",
"@#$$$$$$$$$$$$$$$$$$$$$$%",
"@#$$$$$$$$$$$$$$$$$$$$$$%",
"@#$$$$$$$$$$$$$$$$$$$$$$%",
"@#$$$$$$$$$$&$$$$$$$$$$$%",
"@#$$$$$$$$$*=-$$$$$$$$$$%",
"@#$$$$$$$$;>,')$$$$$$$$$%",
"@%!!!!!!!~{]!*'^!!!!!!!!%",
"@%!!!!!!/{]!!!^'&!!!!!!!%",
"@%!!!!!!!&!!!!!&!!!!!!!!%",
"@%!!!!!!!!!!!!!!!!!!!!!!%",
"@%!!!!!!!!!!!!!!!!!!!!!!%",
"@%!!!!!!!!!!!!!!!!!!!!!!%",
"@%!!!!!!!!!!!!!!!!!!!!!!%",
"@%!!!!!!!!!!!!!!!!!!!!!!%",
"(%%%%%%%%%%%%%%%%%%%%%%%%",
"@@@@@@@@@@@@@@@@@@@@@@@@@",
"_________________________",
":::::::::::::::::::::::::",
":::::::::::::::::::::::::",
":::::::::::::::::::::::::",
":::::::::::::::::::::::::",
":::::::::::::::::::::::::"};
