/* XPM */
static char * top_left_inactive_xpm[] = {
"10 25 15 1",
" 	c None",
".	c #4C4C4C",
"+	c #505050",
"@	c #525252",
"#	c #4F4F4F",
"$	c #3C3C3C",
"%	c #3B3B3B",
"&	c #494949",
"*	c #474747",
"=	c #414141",
"-	c #353535",
";	c #393939",
">	c #3A3A3A",
",	c #3A3939",
"'	c #393838",
"     .++@@",
"   #@$%%%%",
"  &%%%%%%%",
" *%%%%%%%%",
" =%%%%%%%%",
"-%%%%%%%%%",
";%%%%%%%%%",
";%%%%%%%%%",
">%%%%%%%%%",
",>>>>>>>>>",
",>>>>>>>>>",
",>>>>>>>>>",
",>>>>>>>>>",
",>>>>>>>>>",
",>>>>>>>>>",
",>>>>>>>>>",
",>>>>>>>>>",
"';;;;;;;;;",
"';;;;;;;;;",
"';;;;;;;;;",
"';;;;;;;;;",
"';;;;;;;;;",
"';;;;;;;;;",
"';;;;;;;;;",
"';;;;;;;;;"};
