/* XPM */
static char * close_inactive_xpm[] = {
"18 18 3 1",
" 	c None",
".	c #FFFFFF",
"+	c #000000",
"..................",
"++++++++++++++++++",
"++++++++++++++++++",
"++++++++++++++++++",
"++++++++++++++++++",
"++++++++++++++++++",
"++++++.+++.+++++++",
"+++++.+.+.+.++++++",
"++++++.+.+.+++++++",
"+++++++.+.++++++++",
"++++++.+.+.+++++++",
"+++++.+.+.+.++++++",
"++++++.+++.+++++++",
"++++++++++++++++++",
"++++++++++++++++++",
"++++++++++++++++++",
"++++++++++++++++++",
".................."};
