/* XPM */
static char * hide_pressed_xpm[] = {
"18 18 4 1",
" 	c None",
".	c #FFFFFF",
"+	c #000000",
"@	c #E24512",
"..................",
"++++++++++++++++++",
"++++++++++++++++++",
"++++++++++++++++++",
"++++++++++++++++++",
"++++++++++++++++++",
"++++++++++++++++++",
"+++++@+++++@++++++",
"++++++@+++@+++++++",
"+++++++@+@++++++++",
"++++++++@+++++++++",
"++++++++++++++++++",
"++++++++++++++++++",
"++++++++++++++++++",
"++++++++++++++++++",
"++++++++++++++++++",
"++++++++++++++++++",
".................."};
