/* XPM */
static char * top_left_inactive_xpm[] = {
"2 18 3 1",
" 	c None",
".	c #FFFFFF",
"+	c #000000",
"..",
".+",
".+",
".+",
".+",
".+",
".+",
".+",
".+",
".+",
".+",
".+",
".+",
".+",
".+",
".+",
".+",
".."};
