/* XPM */
static char * bottom_inactive_xpm[] = {
"128 18 4 1",
" 	c None",
".	c #212021",
"+	c #211F21",
"@	c #4F4F4F",
"............................................................................................................................+...",
"................................................................................................................................",
"..........................................................................................+.....................................",
"................................................................................................................................",
"...............................................................................................................................+",
".............................................................................................................................+..",
"................................................................................................................................",
"................................................................................................................................",
"................................................................................................................................",
"................................+...............................................................................................",
"@@@@@@@@@@@@@@@@@@@@@@@@@@@@@@@@@@@@@@@@@@@@@@@@@@@@@@@@@@@@@@@@@@@@@@@@@@@@@@@@@@@@@@@@@@@@@@@@@@@@@@@@@@@@@@@@@@@@@@@@@@@@@@@@",
"@@@@@@@@@@@@@@@@@@@@@@@@@@@@@@@@@@@@@@@@@@@@@@@@@@@@@@@@@@@@@@@@@@@@@@@@@@@@@@@@@@@@@@@@@@@@@@@@@@@@@@@@@@@@@@@@@@@@@@@@@@@@@@@@",
"                                                                                                                                ",
"                                                                                                                                ",
"                                                                                                                                ",
"                                                                                                                                ",
"                                                                                                                                ",
"                                                                                                                                "};
