/* XPM */
static char * bottom_active_xpm[] = {
"128 18 4 1",
" 	c None",
".	c #212021",
"+	c #211F21",
"@	c #00FFFF",
"................................................................................................................................",
"................................................................................................................................",
"................................................................................................................................",
"...............+..................................................................+..........................+..................",
"................................................................................................................................",
"................................................................................................................................",
"................................................................................................................................",
".............................................................................+..................................................",
"................................................................................................................................",
"................................................................................................................................",
"@@@@@@@@@@@@@@@@@@@@@@@@@@@@@@@@@@@@@@@@@@@@@@@@@@@@@@@@@@@@@@@@@@@@@@@@@@@@@@@@@@@@@@@@@@@@@@@@@@@@@@@@@@@@@@@@@@@@@@@@@@@@@@@@",
"@@@@@@@@@@@@@@@@@@@@@@@@@@@@@@@@@@@@@@@@@@@@@@@@@@@@@@@@@@@@@@@@@@@@@@@@@@@@@@@@@@@@@@@@@@@@@@@@@@@@@@@@@@@@@@@@@@@@@@@@@@@@@@@@",
"                                                                                                                                ",
"                                                                                                                                ",
"                                                                                                                                ",
"                                                                                                                                ",
"                                                                                                                                ",
"                                                                                                                                "};
