/* XPM */
static char * left_active_xpm[] = {
"4 64 4 1",
" 	c None",
".	c #00FFFF",
"+	c #212021",
"@	c #211F21",
"..++",
"..++",
"..++",
"..++",
"..++",
"..++",
"..++",
"..++",
"..++",
"..++",
"..++",
"..++",
"..++",
"..++",
"..++",
"..++",
"..++",
"..++",
"..++",
"..++",
"..++",
"..++",
"..++",
"..++",
"..++",
"..++",
"..++",
"..++",
"..++",
"..++",
"..++",
"..++",
"..++",
"..++",
"..++",
"..++",
"..++",
"..++",
"..++",
"..+@",
"..++",
"..++",
"..++",
"..++",
"..++",
"..++",
"..++",
"..++",
"..++",
"..++",
"..++",
"..++",
"..++",
"..++",
"..++",
"..++",
"..++",
"..++",
"..++",
"..++",
"..++",
"..++",
"..++",
"..++"};
