/* XPM */
static char * maximize_pressed_xpm[] = {
"12 21 4 1",
" 	c None",
".	c #212021",
"+	c #211F21",
"@	c #00FFFF",
"            ",
"            ",
"            ",
"            ",
"            ",
"            ",
"   ..+...   ",
"  ........  ",
" .......... ",
"...@@@@@@...",
"...@@@@@@...",
"...@....@...",
"...@....@...",
".+.@....@...",
"...@@@@@@...",
" .......... ",
"  ........  ",
"   ......   ",
"            ",
"            ",
"            "};
