/* XPM */
static char * menu_active_xpm[] = {
"12 21 4 1",
" 	c None",
".	c #212021",
"+	c #4F4F4F",
"@	c #211F21",
"            ",
"            ",
"            ",
"            ",
"            ",
"            ",
"   ......   ",
"  ........  ",
" .......... ",
"............",
"...++++++...",
"...++++++...",
"....++++....",
".....++.....",
"............",
" .......... ",
"  ........  ",
"   @.....   ",
"            ",
"            ",
"            "};
