/* XPM */
static char * right_inactive_xpm[] = {
"4 64 4 1",
" 	c None",
".	c #212021",
"+	c #4F4F4F",
"@	c #211F21",
"..++",
"..++",
"..++",
"..++",
"..++",
"..++",
"..++",
"..++",
"..++",
"..++",
"..++",
"..++",
"..++",
"..++",
"..++",
"..++",
"..++",
"..++",
"..++",
"..++",
"..++",
"..++",
"..++",
"..++",
"..++",
"..++",
"..++",
"..++",
"..++",
"..++",
"..++",
"..++",
"..++",
"..++",
"..++",
"..++",
"..++",
"..++",
"..++",
"..++",
"..++",
"..++",
"..++",
"..++",
"..++",
"..++",
"..++",
"..++",
"..++",
"..++",
"..++",
"..++",
"..++",
"..++",
"..++",
"..++",
"..++",
"..++",
"..++",
"..++",
"..++",
".@++",
"..++",
"..++"};
