/* XPM */
static char * stick_pressed_xpm[] = {
"12 21 4 1",
" 	c None",
".	c #212021",
"+	c #00FFFF",
"@	c #211F21",
"            ",
"            ",
"            ",
"            ",
"            ",
"            ",
"   ......   ",
"  ........  ",
" .......... ",
".....+..+.@.",
".....++++...",
"...+++..+...",
"...+++..+...",
".....++++...",
".....+..+...",
" .......... ",
"  ........  ",
"   ......   ",
"            ",
"            ",
"            "};
