/* XPM */
static char * bottom_right_active_xpm[] = {
"36 35 6 1",
" 	c None",
".	c #080808",
"+	c #00FFFF",
"@	c #080807",
"#	c #070808",
"$	c #080708",
"                                ..++",
"                                ..++",
"                                ..++",
"                                ..++",
"                                ..++",
"                                ..++",
"                                ..++",
"                                ..++",
"                                ..++",
"                                ..++",
"                                ..++",
"                                ..++",
"                                ..++",
"                                ..++",
"                                ..++",
"                                ..++",
"                                ..++",
"...................@..............++",
"..........#.....................@.++",
"..................................++",
"....++............................++",
".....++...........@...............++",
"......++..........................++",
".......++.........................++",
"........++....#...................++",
".........++.......................++",
"........++++......................++",
"++++++++++ ++............#........++",
"+++++++++   ++....................++",
"             ++...................++",
"              ++..................++",
"               ++.................++",
"                ++.$.............+++",
"                 ++++++++++++++++++ ",
"                  ++++++++++++++++  "};
