/* XPM */
static char * bottom_left_active_xpm[] = {
"36 35 6 1",
" 	c None",
".	c #00FFFF",
"+	c #080808",
"@	c #070808",
"#	c #080807",
"$	c #080708",
"..++                                ",
"..++                                ",
"..++                                ",
"..++                                ",
"..++                                ",
"..++                                ",
"..++                                ",
"..++                                ",
"..++                                ",
"..++                                ",
"..++                                ",
"..++                                ",
"..++                                ",
"..++                                ",
"..++                                ",
"..++                                ",
"..++                                ",
"..++++++++++++++++++++++++++++++++++",
"..++++++++++++++++++++++++++++++++++",
"..++++++@+++++++++++++++++++++++++++",
"..++++++++++#+++++++++++++++++..++++",
"..+++++++++++++++++++++++++++..+++++",
"..++++++++++++++++++++++++++..++++++",
"..+++++++++++++++++++++++++..+++++++",
"..++++++++++++++++++++++++..++++++++",
"..+++++++++++++++++++++++..+++++++++",
"..++++++++++++++++++++++....++++++++",
"..+++++++++++++++++++++.. ..........",
"..++++++++++++++++++++..   .........",
"..++++++++++++++++#++..             ",
"..++++++++++++++++++..              ",
"..+++++++++++++++++..               ",
"...+++++++$+++++++..                ",
" ..................                 ",
"  ................                  "};
