/* XPM */
static char * bottom_inactive_xpm[] = {
"128 18 6 1",
" 	c None",
".	c #080808",
"+	c #080807",
"@	c #080708",
"#	c #070808",
"$	c #4F4F4F",
"...................................................................................................................+............",
"................................................................................................................................",
"...............................+....................@....................................+.........................@............",
".......................................+...............................................................................#........",
"...........+....................@..............................................................................@................",
"....................................................................@...........................................................",
"................................................................................................................................",
"...............................@................................................................................................",
"................................................................................................................................",
"..............................................................................................@.................................",
"$$$$$$$$$$$$$$$$$$$$$$$$$$$$$$$$$$$$$$$$$$$$$$$$$$$$$$$$$$$$$$$$$$$$$$$$$$$$$$$$$$$$$$$$$$$$$$$$$$$$$$$$$$$$$$$$$$$$$$$$$$$$$$$$",
"$$$$$$$$$$$$$$$$$$$$$$$$$$$$$$$$$$$$$$$$$$$$$$$$$$$$$$$$$$$$$$$$$$$$$$$$$$$$$$$$$$$$$$$$$$$$$$$$$$$$$$$$$$$$$$$$$$$$$$$$$$$$$$$$",
"                                                                                                                                ",
"                                                                                                                                ",
"                                                                                                                                ",
"                                                                                                                                ",
"                                                                                                                                ",
"                                                                                                                                "};
