/* XPM */
static char * bottom_active_xpm[] = {
"128 18 6 1",
" 	c None",
".	c #080808",
"+	c #070808",
"@	c #080708",
"#	c #080807",
"$	c #00FFFF",
".....................................................................+.........................+................................",
"...@.........................................................................@..................................................",
".....................................................................................................................+..........",
"....................................................................................+...........................................",
"......................................................................@.........................................................",
"................................................................................................................................",
"................................................................................................................................",
"...............@...............................+............................#...................................................",
"................................................................................................................................",
"....................@................@.......................................@..................................................",
"$$$$$$$$$$$$$$$$$$$$$$$$$$$$$$$$$$$$$$$$$$$$$$$$$$$$$$$$$$$$$$$$$$$$$$$$$$$$$$$$$$$$$$$$$$$$$$$$$$$$$$$$$$$$$$$$$$$$$$$$$$$$$$$$",
"$$$$$$$$$$$$$$$$$$$$$$$$$$$$$$$$$$$$$$$$$$$$$$$$$$$$$$$$$$$$$$$$$$$$$$$$$$$$$$$$$$$$$$$$$$$$$$$$$$$$$$$$$$$$$$$$$$$$$$$$$$$$$$$$",
"                                                                                                                                ",
"                                                                                                                                ",
"                                                                                                                                ",
"                                                                                                                                ",
"                                                                                                                                ",
"                                                                                                                                "};
