/* XPM */
static char * bottom_left_inactive_xpm[] = {
"36 35 5 1",
" 	c None",
".	c #4F4F4F",
"+	c #080808",
"@	c #080807",
"#	c #080708",
"..++                                ",
"..++                                ",
"..++                                ",
"..++                                ",
"..++                                ",
"..++                                ",
"..++                                ",
"..++                                ",
"..++                                ",
"..++                                ",
"..++                                ",
"..++                                ",
"..++                                ",
"..++                                ",
"..++                                ",
"..++                                ",
"..++                                ",
"..+++++++++++++++++++++++++++++++@++",
"..++++++++++++++++++++++@+++++++++++",
"..++++++++++++++++++++++++++++++++++",
"..++++++++++++++++++++++++++++..++++",
"..+++++++++++++++++++++++++++..+++++",
"..++++++++++++++++++++++++++..++++++",
"..+++++++++++++++++++++++++..+++++++",
"..++++++++++++++++++++++++..++++++++",
"..+++++++++++++++++++++++..+++++++++",
"..++++++++++++++++++++++....++++++++",
"..+++++++++++++++++++++.. ..........",
"..++++++++++++++++++++..   .........",
"..+@+++++++++++++++++..             ",
"..+++++++++++#++++++..              ",
"..+++++++++++++++++..               ",
"...+++++++++++++++..                ",
" ..................                 ",
"  ................                  "};
