/* XPM */
static char * close_active_xpm[] = {
"12 21 6 1",
" 	c None",
".	c #080808",
"+	c #4F4F4F",
"@	c #070808",
"#	c #080708",
"$	c #080807",
"            ",
"            ",
"            ",
"            ",
"            ",
"            ",
"   ......   ",
"  ........  ",
" .......... ",
"...++@.++...",
"...++++++...",
"....+..+....",
"....+..+....",
"#..++++++...",
"...++..++...",
" .......... ",
"  ........  ",
"   ..$...   ",
"            ",
"            ",
"            "};
