/* XPM */
static char * hide_inactive_xpm[] = {
"12 21 3 1",
" 	c None",
".	c #080808",
"+	c #080807",
"            ",
"            ",
"            ",
"            ",
"            ",
"            ",
"   ......   ",
"  ........  ",
" .......... ",
"............",
"............",
"......+.....",
"............",
"............",
"............",
" .......... ",
"  ........  ",
"   ......   ",
"            ",
"            ",
"            "};
