/* XPM */
static char * hide_pressed_xpm[] = {
"12 21 4 1",
" 	c None",
".	c #080808",
"+	c #080708",
"@	c #00FFFF",
"            ",
"            ",
"            ",
"            ",
"            ",
"            ",
"   ..+...   ",
"  ........  ",
" .......... ",
"............",
"............",
"............",
"............",
"...@@@@@@...",
"...@@@@@@...",
" .......... ",
"  ........  ",
"   ......   ",
"            ",
"            ",
"            "};
