/* XPM */
static char * menu_pressed_xpm[] = {
"12 21 4 1",
" 	c None",
".	c #080808",
"+	c #070808",
"@	c #00FFFF",
"            ",
"            ",
"            ",
"            ",
"            ",
"            ",
"   ......   ",
"  ........  ",
" .+........ ",
"............",
"...@@@@@@...",
"...@@@@@@...",
"....@@@@....",
".....@@.....",
"............",
" .......... ",
"  ........  ",
"   ......   ",
"            ",
"            ",
"            "};
