/* XPM */
static char * right_inactive_xpm[] = {
"4 64 3 1",
" 	c None",
".	c #080808",
"+	c #4F4F4F",
"..++",
"..++",
"..++",
"..++",
"..++",
"..++",
"..++",
"..++",
"..++",
"..++",
"..++",
"..++",
"..++",
"..++",
"..++",
"..++",
"..++",
"..++",
"..++",
"..++",
"..++",
"..++",
"..++",
"..++",
"..++",
"..++",
"..++",
"..++",
"..++",
"..++",
"..++",
"..++",
"..++",
"..++",
"..++",
"..++",
"..++",
"..++",
"..++",
"..++",
"..++",
"..++",
"..++",
"..++",
"..++",
"..++",
"..++",
"..++",
"..++",
"..++",
"..++",
"..++",
"..++",
"..++",
"..++",
"..++",
"..++",
"..++",
"..++",
"..++",
"..++",
"..++",
"..++",
"..++"};
