/* XPM */
static char * shade_active_xpm[] = {
"12 21 4 1",
" 	c None",
".	c #080807",
"+	c #080808",
"@	c #4F4F4F",
"            ",
"            ",
"            ",
"            ",
"            ",
"            ",
"   .+++++   ",
"  ++++++++  ",
" ++++++++++ ",
"++++++++++++",
"+++++@@+++++",
"++++@@@@++++",
"+++@@@@@@+++",
"+++@@@@@@+++",
"++++++++++++",
" ++++++++++ ",
"  ++++++++  ",
"   ++++++   ",
"            ",
"            ",
"            "};
