/* XPM */
static char * stick_pressed_xpm[] = {
"12 21 5 1",
" 	c None",
".	c #080808",
"+	c #080807",
"@	c #00FFFF",
"#	c #070808",
"            ",
"            ",
"            ",
"            ",
"            ",
"            ",
"   ......   ",
"  ........  ",
" ..+....... ",
".....@..@...",
".....@@@@...",
"...@@@..@...",
"...@@@..@...",
".....@@@@...",
".....@..@...",
" ...#...... ",
"  ........  ",
"   ......   ",
"            ",
"            ",
"            "};
