/* XPM */
static char * title_3_inactive_xpm[] = {
"128 21 6 1",
" 	c None",
".	c #4F4F4F",
"+	c #080808",
"@	c #080708",
"#	c #080807",
"$	c #070808",
"                                                                                                                                ",
"................................................................................................................................",
"................................................................................................................................",
"+++++++++++++++++++++++++++++++++++++++++++++++++++++++++++++++++++++@++++++++++++++++++++++++++++++++++++++++++++++++++@+++++++",
"++++++++++++++++++++++++++++++++++++++++++++@+++++++++++++++++++++++++++++++++++++++++++++++++++++++++++++++++++++++++++++++++++",
"++++++++++++++++++++++++++++++++++++++++++++++++++++++++++++++++++++++++++++++++++++++++++++++++++++++++++++++++++++++++++++++++",
"+++++++++++++++++++@+++++++++++++++++++++++++++++++++++++++++++++++++++++++++++++++++++++++++++++++++++++#++++++++++++++++++++++",
"++++++++++++++++++++++++++++++++++++++++++++++@++++++++++++++++++++++++++++++++++++++++++++++++++++++++#++++++++++++++++++++++++",
"++++++++++++++++++++++++++++++++++++++++++++++++++++++@+++++++++++++++++++++++++++++++++++++++++++++++++++++++++++++++++++++++++",
"++++++++++++++++++++++++++++++++++++++++++++++++++++++++++++++++++++++++++$+++++++++++++++++++++++++++++++++++++++++++++++++++++",
"+++++++++++++++++++++++++++++++++++++++++++++++++++++++++++++++++++++++++++++++++++++++++#++++++++++++++$+++++++++++++++++++++++",
"++++++++++++++++++++++++++++++++++++++++++++++@++++++++++++++++++++++++++++++++++++#++++++++++++++++++++++++++++++++++++++++++++",
"+++++++++++++++++++++++++++++++++++++++++++++++++++++++++++++++++++++++++++++++++++++++++++++++++++++++++++++++++++++++++++++++@",
"++++++++++++++++++++++++++++++++++++++++++++++++++++++++++++++++++++++++++++++++++++++++++++++++++++++++++++++++++#+++++++++++++",
"+++++@++++++++++++++++++++++++++++++++++++++++++++++++++++++++++++++++++++++++++++++++++++++++++++++++++++++++++++++++++++++++++",
"+++++++++$++++++++++++++++++++++++++++++++++++++++++++++++++++++++++++++++++++++++++++++++++++++#$+++#++++++++++++++++++++++++++",
"++++++++$++++++++++++++++++++++++++++++++++++++++++++++++++++++++++++++++++++++++++++++++++++++++++++$++++++++++++++++++++++++++",
"++++++++++++++++++++++++++++++++++++++++++++++++++++++++++++++++++++++++++++++++++++++++++++++++++++++++++++++++++++++++++++++++",
"++++++++++++$++++++++++++$++++++++++++++++++++++++++++++++++++++++++++++++++++++++++++++++++++++++++++++++++++++@+++++++++++++++",
"++++++++++++++++++++++++++++++++++++++++++++++++++++++++++++++++++++++++++++++++++++++++++++++++++++++++++++++++++++++++++++++++",
"++++++++++++++++++++++++++++++++++++++++++++++++++++++++++++++++++++++++++++++++++++++++++++++++++++++++++++++++++++++++++++++++"};
