/* XPM */
static char * title_2_active_xpm[] = {
"8 21 5 1",
" 	c None",
".	c #00FFFF",
"+	c #080708",
"@	c #080808",
"#	c #080807",
"        ",
"      ..",
"     ...",
".......+",
"......@@",
"@@@@@@@@",
"@@@@@@@@",
"@@@@@@@@",
"#@@@@@@@",
"@@@@@@@@",
"@@@@@@@@",
"@@@@@@@@",
"@@@@@@@@",
"@@@@@@@@",
"@@@@@@@@",
"@@@@@@@@",
"@@@@@@@@",
"@@@@@@@@",
"@@@@@@@@",
"@@@@@@@@",
"@@@@@@@@"};
