/* XPM */
static char * title_4_inactive_xpm[] = {
"8 21 5 1",
" 	c None",
".	c #4F4F4F",
"+	c #080808",
"@	c #080708",
"#	c #070808",
"        ",
"..      ",
"...     ",
"+.......",
"++......",
"++++++++",
"++++++++",
"++++++++",
"++++++++",
"+++++@++",
"+++++#++",
"++++++++",
"++++++++",
"++++++++",
"++++++++",
"++++++++",
"++#+++++",
"++++++++",
"++++++++",
"++++++++",
"++++++++"};
