/* XPM */
static char * top_right_inactive_xpm[] = {
"21 21 6 1",
" 	c None",
".	c #4F4F4F",
"+	c #080808",
"@	c #070808",
"#	c #080807",
"$	c #080708",
"    ..............   ",
"   ................  ",
"  ...++++++++++++... ",
"....++++++++++++++...",
"...++++++++++++++++..",
"+++++++++++++++++++..",
"++++++++++++@++++++..",
"+++++++++++++++++++..",
"+++++++++++++++++++..",
"+++++++++++++++++#+..",
"+++++++++++++++++++..",
"+++++++++++++++++++..",
"+++++++++++++++++++..",
"+++++++++++++++++++..",
"+++++++++++++++++$+..",
"+++++++++++++++++++..",
"+++++++++++++++++++..",
"+++++++++++++++++++..",
"+++++++++++++++++++..",
"+++++++++++++++++++..",
"+++++++++++++++++++.."};
