/* XPM */
static char * top_left_inactive_xpm[] = {
"21 21 5 1",
" 	c None",
".	c #4F4F4F",
"+	c #080808",
"@	c #070808",
"#	c #080807",
"   ..............    ",
"  ................   ",
" ...++++++++++++...  ",
"...++++++++++++++....",
"..++++@+++++++++++...",
"..+++++++++++++++++++",
"..+++++++++++++++++++",
"..+++++++++++++++++++",
"..+++++++++++++++++++",
"..+++++++++++++++++++",
"..+++++++++++++++++++",
"..+++++++++++++++++++",
"..++++#++++++++++++++",
"..+++++++++++++++++++",
"..@++++++++++++++++++",
"..+++++++++++++++++++",
"..++++#++++++++++++++",
"..+++++++++++++++++++",
"..+++++++++++++++++++",
"..+++++++++++++++++++",
"..+++++++++++++++++++"};
