/* XPM */
static char * top_right_active_xpm[] = {
"21 21 5 1",
" 	c None",
".	c #00FFFF",
"+	c #080808",
"@	c #070808",
"#	c #080708",
"    ..............   ",
"   ................  ",
"  ...++++++++++++... ",
"....@+++++++++++++...",
"...++++++++++++++++..",
"+++++++++++++++++++..",
"+++++++++++++++++++..",
"+++++++++++++++++++..",
"+++++++++++++++++++..",
"+++++++++++++++++++..",
"+++++++++++++++++++..",
"++++++++#++++++++++..",
"+++++++++++++++++++..",
"+++++++++++++++++++..",
"+++++++++++++++++++..",
"+++++++++++++++++++..",
"+++++++++++++++++++..",
"+++++++++++++++++#+..",
"+++++++++++++++++++..",
"+++++++++++++++++++..",
"+++++++++++++++++++.."};
