/* XPM */
static char * close_pressed_xpm[] = {
"25 25 36 1",
" 	c None",
".	c #282828",
"+	c #3A3A3A",
"@	c #393939",
"#	c #363636",
"$	c #212121",
"%	c #343434",
"&	c #373737",
"*	c #383838",
"=	c #4A4A4A",
"-	c #434343",
";	c #424242",
">	c #3D3D3D",
",	c #3C3C3C",
"'	c #414141",
")	c #292929",
"!	c #A9A9A9",
"~	c #535353",
"{	c #4F4F4F",
"]	c #484848",
"^	c #2B2B2B",
"/	c #545454",
"(	c #5B5B5B",
"_	c #ABABAB",
":	c #2C2C2C",
"<	c #333333",
"[	c #4E4E4E",
"}	c #ACACAC",
"|	c #2C2B2B",
"1	c #5A5A5A",
"2	c #444444",
"3	c #252525",
"4	c #212020",
"5	c #464646",
"6	c #464545",
"7	c #393838",
".++++++++++++++++@@#     ",
"$%&&&&&&&&&&&&&&&&&*=-   ",
"$%&&&&&&&&&&&&&&&&&&&&;  ",
"$%&&&&&&&&&&&&&&&&&&&&&> ",
"$%&&&&&&&&&&&&&&&&&&&&&, ",
"$%&&&&&&&&'&&&&'&&&&&&&&)",
"$%&&&&&&&-!~&&{!]&&&&&&&^",
"$%&&&&&&&&/!~{!(&&&&&&&&^",
"$%&&&&&&&&&/__(&&&&&&&&&:",
"$<#########[}}/#########|",
"$<########[!1/!/########|",
"$<#######2!1##/!]#######|",
"$<########]####]########|",
"$<######################|",
"$<######################|",
"$<######################|",
"$<######################|",
"3<<<<<<<<<<<<<<<<<<<<<<<<",
"$$$$$$$$$$$$$$$$$$$$$$$$4",
"5555555555555555555555556",
"@@@@@@@@@@@@@@@@@@@@@@@@7",
"@@@@@@@@@@@@@@@@@@@@@@@@7",
"@@@@@@@@@@@@@@@@@@@@@@@@7",
"@@@@@@@@@@@@@@@@@@@@@@@@7",
"@@@@@@@@@@@@@@@@@@@@@@@@7"};
