/* XPM */
static char * hide_inactive_xpm[] = {
"25 25 27 1",
" 	c None",
".	c #525252",
"+	c #282828",
"@	c #484848",
"#	c #212121",
"$	c #494949",
"%	c #3B3B3B",
"&	c #474747",
"*	c #3A3A3A",
"=	c #464646",
"-	c #444444",
";	c #242424",
">	c #424242",
",	c #2D2D2D",
"'	c #3E3E3E",
")	c #3D3D3D",
"!	c #2E2E2E",
"~	c #3C3C3C",
"{	c #373737",
"]	c #3F3F3F",
"^	c #393939",
"/	c #434343",
"(	c #363636",
"_	c #404040",
":	c #313131",
"<	c #262626",
"[	c #454545",
".+.......................",
"@#$%%%%%%%%%%%%%%%%%%%%%@",
"@#$%%%%%%%%%%%%%%%%%%%%%@",
"@#$%%%%%%%%%%%%%%%%%%%%%@",
"@#$%%%%%%%%%%%%%%%%%%%%%@",
"@#$%%%%%%%%%%%%%%%%%%%%%@",
"@#$%%%%%%%%%%%%%%%%%%%%%@",
"@#$%%%%%%%%%%%%%%%%%%%%%@",
"@#$%%%%%%%%%%%%%%%%%%%%%@",
"&#@*********************&",
"&#@*********************&",
"&#@*********************&",
"=#$*********************&",
"-;@%********************&",
">,='********************&",
"')!&~*******************&",
"%-{*&]%*****************&",
"^~/(,/&@&&&&&&&&&&&&&&&&&",
"^^~/_:<##################",
"^^^*)_/[=================",
"^^^^^^^^^^^^^^^^^^^^^^^^^",
"^^^^^^^^^^^^^^^^^^^^^^^^^",
"^^^^^^^^^^^^^^^^^^^^^^^^^",
"^^^^^^^^^^^^^^^^^^^^^^^^^",
"^^^^^^^^^^^^^^^^^^^^^^^^^"};
