/* XPM */
static char * hide_prelight_xpm[] = {
"25 25 40 1",
" 	c None",
".	c #525252",
"+	c #282828",
"@	c #484848",
"#	c #212121",
"$	c #494949",
"%	c #3B3B3B",
"&	c #4F4F4F",
"*	c #474747",
"=	c #A9A9A9",
"-	c #636363",
";	c #595959",
">	c #ACACAC",
",	c #515151",
"'	c #5A5A5A",
")	c #3A3A3A",
"!	c #AAAAAA",
"~	c #777777",
"{	c #585858",
"]	c #B4B4B4",
"^	c #676767",
"/	c #4D4D4D",
"(	c #464646",
"_	c #444444",
":	c #242424",
"<	c #424242",
"[	c #2D2D2D",
"}	c #3E3E3E",
"|	c #3D3D3D",
"1	c #2E2E2E",
"2	c #3C3C3C",
"3	c #373737",
"4	c #3F3F3F",
"5	c #393939",
"6	c #434343",
"7	c #363636",
"8	c #404040",
"9	c #313131",
"0	c #262626",
"a	c #454545",
".+.......................",
"@#$%%%%%%%%%%%%%%%%%%%%%@",
"@#$%%%%%%%%%%%%%%%%%%%%%@",
"@#$%%%%%%%%%%%%%%%%%%%%%@",
"@#$%%%%%%%%%%%%%%%%%%%%%@",
"@#$%%%%%%%%%%%%%%%%%%%%%@",
"@#$%%%%%%%&%%%%%&%%%%%%%@",
"@#$%%%%%%*=-%%%;>&%%%%%%@",
"@#$%%%%%%%,=-%'>;%%%%%%%@",
"*#@)))))))),!~>{))))))))*",
"*#@)))))))));]^)))))))))*",
"*#@))))))))))/))))))))))*",
"(#$)))))))))))))))))))))*",
"_:@%))))))))))))))))))))*",
"<[(}))))))))))))))))))))*",
"}|1*2)))))))))))))))))))*",
"%_3)*4%)))))))))))))))))*",
"5267[6*@*****************",
"5526890##################",
"555)|86a(((((((((((((((((",
"5555555555555555555555555",
"5555555555555555555555555",
"5555555555555555555555555",
"5555555555555555555555555",
"5555555555555555555555555"};
