/* XPM */
static char * hide_pressed_xpm[] = {
"25 25 43 1",
" 	c None",
".	c #525252",
"+	c #282828",
"@	c #3A3A3A",
"#	c #484848",
"$	c #212121",
"%	c #343434",
"&	c #373737",
"*	c #333333",
"=	c #4C4C4C",
"-	c #444444",
";	c #A9A9A9",
">	c #606060",
",	c #565656",
"'	c #ACACAC",
")	c #4F4F4F",
"!	c #585858",
"~	c #474747",
"{	c #363636",
"]	c #4E4E4E",
"^	c #AAAAAA",
"/	c #767676",
"(	c #555555",
"_	c #B4B4B4",
":	c #656565",
"<	c #4A4A4A",
"[	c #464646",
"}	c #353535",
"|	c #242424",
"1	c #424242",
"2	c #2D2D2D",
"3	c #383838",
"4	c #3E3E3E",
"5	c #3D3D3D",
"6	c #2B2B2B",
"7	c #3B3B3B",
"8	c #393939",
"9	c #3C3C3C",
"0	c #434343",
"a	c #404040",
"b	c #313131",
"c	c #262626",
"d	c #454545",
".+@@@@@@@@@@@@@@@@@@@@@@@",
"#$%&&&&&&&&&&&&&&&&&&&&&*",
"#$%&&&&&&&&&&&&&&&&&&&&&*",
"#$%&&&&&&&&&&&&&&&&&&&&&*",
"#$%&&&&&&&&&&&&&&&&&&&&&*",
"#$%&&&&&&&&&&&&&&&&&&&&&*",
"#$%&&&&&&&=&&&&&=&&&&&&&*",
"#$%&&&&&&-;>&&&,'=&&&&&&*",
"#$%&&&&&&&);>&!',&&&&&&&*",
"~$%{{{{{{{{]^/'({{{{{{{{*",
"~$%{{{{{{{{{,_:{{{{{{{{{*",
"~$%{{{{{{{{{{<{{{{{{{{{{*",
"[$}{{{{{{{{{{{{{{{{{{{{{*",
"-|}&{{{{{{{{{{{{{{{{{{{{*",
"123{{{{{{{{{{{{{{{{{{{{{*",
"456*&{{{{{{{{{{{{{{{{{{{*",
"7-&*&&{{{{{{{{{{{{{{{{{{*",
"890{6{{%*****************",
"8890abc$$$$$$$$$$$$$$$$$$",
"888@5a0d[[[[[[[[[[[[[[[[[",
"8888888888888888888888888",
"8888888888888888888888888",
"8888888888888888888888888",
"8888888888888888888888888",
"8888888888888888888888888"};
