/* XPM */
static char * maximize_inactive_xpm[] = {
"25 25 11 1",
" 	c None",
".	c #282828",
"+	c #525252",
"@	c #212121",
"#	c #484848",
"$	c #3B3B3B",
"%	c #474747",
"&	c #3A3A3A",
"*	c #252525",
"=	c #464646",
"-	c #393939",
".++++++++++++++++++++++++",
"@#$$$$$$$$$$$$$$$$$$$$$$#",
"@#$$$$$$$$$$$$$$$$$$$$$$#",
"@#$$$$$$$$$$$$$$$$$$$$$$#",
"@#$$$$$$$$$$$$$$$$$$$$$$#",
"@#$$$$$$$$$$$$$$$$$$$$$$#",
"@#$$$$$$$$$$$$$$$$$$$$$$#",
"@#$$$$$$$$$$$$$$$$$$$$$$#",
"@#$$$$$$$$$$$$$$$$$$$$$$#",
"@%&&&&&&&&&&&&&&&&&&&&&&%",
"@%&&&&&&&&&&&&&&&&&&&&&&%",
"@%&&&&&&&&&&&&&&&&&&&&&&%",
"@%&&&&&&&&&&&&&&&&&&&&&&%",
"@%&&&&&&&&&&&&&&&&&&&&&&%",
"@%&&&&&&&&&&&&&&&&&&&&&&%",
"@%&&&&&&&&&&&&&&&&&&&&&&%",
"@%&&&&&&&&&&&&&&&&&&&&&&%",
"*%%%%%%%%%%%%%%%%%%%%%%%%",
"@@@@@@@@@@@@@@@@@@@@@@@@@",
"=========================",
"-------------------------",
"-------------------------",
"-------------------------",
"-------------------------",
"-------------------------"};
