/* XPM */
static char * maximize_prelight_xpm[] = {
"25 25 23 1",
" 	c None",
".	c #282828",
"+	c #525252",
"@	c #212121",
"#	c #484848",
"$	c #3B3B3B",
"%	c #4E4E4E",
"&	c #5A5A5A",
"*	c #B4B4B4",
"=	c #686868",
"-	c #515151",
";	c #AAAAAA",
">	c #787878",
",	c #ACACAC",
"'	c #595959",
")	c #474747",
"!	c #3A3A3A",
"~	c #A9A9A9",
"{	c #626262",
"]	c #585858",
"^	c #252525",
"/	c #464646",
"(	c #393939",
".++++++++++++++++++++++++",
"@#$$$$$$$$$$$$$$$$$$$$$$#",
"@#$$$$$$$$$$$$$$$$$$$$$$#",
"@#$$$$$$$$$$$$$$$$$$$$$$#",
"@#$$$$$$$$$$$$$$$$$$$$$$#",
"@#$$$$$$$$$$$$$$$$$$$$$$#",
"@#$$$$$$$$$$%$$$$$$$$$$$#",
"@#$$$$$$$$$&*=$$$$$$$$$$#",
"@#$$$$$$$$-;>,'$$$$$$$$$#",
"@)!!!!!!!-~{!',]!!!!!!!!)",
"@)!!!!!!)~{!!!],%!!!!!!!)",
"@)!!!!!!!%!!!!!%!!!!!!!!)",
"@)!!!!!!!!!!!!!!!!!!!!!!)",
"@)!!!!!!!!!!!!!!!!!!!!!!)",
"@)!!!!!!!!!!!!!!!!!!!!!!)",
"@)!!!!!!!!!!!!!!!!!!!!!!)",
"@)!!!!!!!!!!!!!!!!!!!!!!)",
"^))))))))))))))))))))))))",
"@@@@@@@@@@@@@@@@@@@@@@@@@",
"/////////////////////////",
"(((((((((((((((((((((((((",
"(((((((((((((((((((((((((",
"(((((((((((((((((((((((((",
"(((((((((((((((((((((((((",
"((((((((((((((((((((((((("};
