/* XPM */
static char * title_4_active_xpm[] = {
"5 25 5 1",
" 	c None",
".	c #525252",
"+	c #3B3B3B",
"@	c #3A3A3A",
"#	c #393939",
".....",
"+++++",
"+++++",
"+++++",
"+++++",
"+++++",
"+++++",
"+++++",
"+++++",
"@@@@@",
"@@@@@",
"@@@@@",
"@@@@@",
"@@@@@",
"@@@@@",
"@@@@@",
"@@@@@",
"#####",
"#####",
"#####",
"#####",
"#####",
"#####",
"#####",
"#####"};
